<svg xmlns="http://www.w3.org/2000/svg" xmlns:xlink="http://www.w3.org/1999/xlink" width="500" zoomAndPan="magnify" viewBox="0 0 375 374.999991" height="500" preserveAspectRatio="xMidYMid meet" version="1.0"><defs><clipPath id="7b06ad1257"><path d="M 174 87 L 201 87 L 201 184.222656 L 174 184.222656 Z M 174 87 " clip-rule="nonzero"/></clipPath><clipPath id="689433e561"><path d="M 141 111 L 162 111 L 162 184.222656 L 141 184.222656 Z M 141 111 " clip-rule="nonzero"/></clipPath><clipPath id="96e2db97f1"><path d="M 112 137 L 132 137 L 132 184.222656 L 112 184.222656 Z M 112 137 " clip-rule="nonzero"/></clipPath><clipPath id="7b4ee51d4e"><path d="M 86 116 L 103 116 L 103 184.222656 L 86 184.222656 Z M 86 116 " clip-rule="nonzero"/></clipPath><clipPath id="aa910c584c"><path d="M 61 152 L 76 152 L 76 184.222656 L 61 184.222656 Z M 61 152 " clip-rule="nonzero"/></clipPath><clipPath id="7a9b2cd05a"><path d="M 39 162 L 52 162 L 52 184.222656 L 39 184.222656 Z M 39 162 " clip-rule="nonzero"/></clipPath><clipPath id="6ac1be0027"><path d="M 21 171 L 32 171 L 32 184.222656 L 21 184.222656 Z M 21 171 " clip-rule="nonzero"/></clipPath><clipPath id="c4d60deaa9"><path d="M 213 111 L 234 111 L 234 184.222656 L 213 184.222656 Z M 213 111 " clip-rule="nonzero"/></clipPath><clipPath id="97215264df"><path d="M 243 137 L 262 137 L 262 184.222656 L 243 184.222656 Z M 243 137 " clip-rule="nonzero"/></clipPath><clipPath id="cd826a05be"><path d="M 272 116 L 289 116 L 289 184.222656 L 272 184.222656 Z M 272 116 " clip-rule="nonzero"/></clipPath><clipPath id="fe4adf8270"><path d="M 298 152 L 314 152 L 314 184.222656 L 298 184.222656 Z M 298 152 " clip-rule="nonzero"/></clipPath><clipPath id="b66b624e21"><path d="M 323 162 L 336 162 L 336 184.222656 L 323 184.222656 Z M 323 162 " clip-rule="nonzero"/></clipPath><clipPath id="fe112da31d"><path d="M 343 171 L 354 171 L 354 184.222656 L 343 184.222656 Z M 343 171 " clip-rule="nonzero"/></clipPath></defs><path fill="#8e05c2" d="M 174.03125 96.855469 C 174.03125 91.511719 178.363281 87.1875 183.695312 87.1875 L 191.070312 87.1875 C 196.414062 87.1875 200.738281 91.511719 200.738281 96.855469 L 200.738281 277.09375 C 200.738281 282.429688 196.414062 286.757812 191.070312 286.757812 L 183.695312 286.757812 C 178.363281 286.757812 174.03125 282.429688 174.03125 277.089844 L 174.03125 96.851562 " fill-opacity="1" fill-rule="nonzero"/><path fill="#8e05c2" d="M 141.351562 121.300781 C 141.351562 115.964844 145.683594 111.632812 151.015625 111.632812 L 151.585938 111.632812 C 156.917969 111.632812 161.25 115.964844 161.25 121.300781 L 161.25 252.636719 C 161.25 257.976562 156.917969 262.308594 151.585938 262.308594 L 151.015625 262.308594 C 145.683594 262.308594 141.351562 257.976562 141.351562 252.640625 L 141.351562 121.304688 " fill-opacity="1" fill-rule="nonzero"/><path fill="#8e05c2" d="M 112.941406 146.597656 C 112.941406 141.578125 117.011719 137.507812 122.03125 137.507812 C 127.054688 137.507812 131.125 141.578125 131.125 146.597656 L 131.125 227.339844 C 131.125 232.367188 127.054688 236.441406 122.03125 236.441406 C 117.011719 236.441406 112.941406 232.367188 112.941406 227.339844 L 112.941406 146.597656 " fill-opacity="1" fill-rule="nonzero"/><path fill="#8e05c2" d="M 86.226562 124.425781 C 86.226562 120.03125 89.792969 116.46875 94.1875 116.46875 C 98.582031 116.46875 102.140625 120.03125 102.140625 124.425781 L 102.140625 249.519531 C 102.140625 253.910156 98.582031 257.476562 94.1875 257.476562 C 89.792969 257.476562 86.226562 253.910156 86.226562 249.515625 L 86.226562 124.421875 " fill-opacity="1" fill-rule="nonzero"/><path fill="#8e05c2" d="M 61.214844 159.679688 C 61.214844 155.597656 64.53125 152.289062 68.609375 152.289062 C 72.6875 152.289062 75.992188 155.597656 75.992188 159.679688 L 75.992188 214.269531 C 75.992188 218.351562 72.6875 221.65625 68.609375 221.65625 C 64.53125 221.65625 61.214844 218.351562 61.214844 214.269531 L 61.214844 159.679688 " fill-opacity="1" fill-rule="nonzero"/><path fill="#8e05c2" d="M 39.054688 168.773438 C 39.054688 165.320312 41.855469 162.519531 45.3125 162.519531 C 48.757812 162.519531 51.558594 165.320312 51.558594 168.773438 L 51.558594 205.167969 C 51.558594 208.617188 48.757812 211.417969 45.3125 211.417969 C 41.855469 211.417969 39.054688 208.617188 39.054688 205.167969 L 39.054688 168.773438 " fill-opacity="1" fill-rule="nonzero"/><path fill="#8e05c2" d="M 21.4375 177.019531 C 21.4375 174.195312 23.726562 171.90625 26.558594 171.90625 C 29.375 171.90625 31.667969 174.195312 31.667969 177.019531 L 31.667969 196.917969 C 31.667969 199.753906 29.375 202.035156 26.558594 202.035156 C 23.726562 202.035156 21.4375 199.753906 21.4375 196.917969 L 21.4375 177.019531 " fill-opacity="1" fill-rule="nonzero"/><path fill="#8e05c2" d="M 233.421875 121.300781 C 233.421875 115.964844 229.089844 111.632812 223.757812 111.632812 L 223.199219 111.632812 C 217.855469 111.632812 213.535156 115.964844 213.535156 121.300781 L 213.535156 252.636719 C 213.535156 257.976562 217.855469 262.308594 223.199219 262.308594 L 223.757812 262.308594 C 229.089844 262.308594 233.421875 257.976562 233.421875 252.640625 L 233.421875 121.304688 " fill-opacity="1" fill-rule="nonzero"/><path fill="#8e05c2" d="M 261.839844 146.597656 C 261.839844 141.578125 257.769531 137.507812 252.746094 137.507812 C 247.726562 137.507812 243.648438 141.578125 243.648438 146.597656 L 243.648438 227.339844 C 243.648438 232.367188 247.726562 236.441406 252.746094 236.441406 C 257.769531 236.441406 261.839844 232.367188 261.839844 227.339844 L 261.839844 146.597656 " fill-opacity="1" fill-rule="nonzero"/><path fill="#8e05c2" d="M 288.546875 124.425781 C 288.546875 120.03125 284.984375 116.46875 280.589844 116.46875 C 276.191406 116.46875 272.632812 120.03125 272.632812 124.425781 L 272.632812 249.519531 C 272.632812 253.910156 276.191406 257.476562 280.589844 257.476562 C 284.984375 257.476562 288.546875 253.910156 288.546875 249.515625 L 288.546875 124.421875 " fill-opacity="1" fill-rule="nonzero"/><path fill="#8e05c2" d="M 313.554688 159.679688 C 313.554688 155.597656 310.246094 152.289062 306.167969 152.289062 C 302.085938 152.289062 298.78125 155.597656 298.78125 159.679688 L 298.78125 214.269531 C 298.78125 218.351562 302.085938 221.65625 306.167969 221.65625 C 310.246094 221.65625 313.554688 218.351562 313.554688 214.269531 L 313.554688 159.679688 " fill-opacity="1" fill-rule="nonzero"/><path fill="#8e05c2" d="M 335.71875 168.773438 C 335.71875 165.320312 332.917969 162.519531 329.464844 162.519531 C 326.015625 162.519531 323.214844 165.320312 323.214844 168.773438 L 323.214844 205.167969 C 323.214844 208.617188 326.015625 211.417969 329.464844 211.417969 C 332.917969 211.417969 335.71875 208.617188 335.71875 205.167969 L 335.71875 168.773438 " fill-opacity="1" fill-rule="nonzero"/><path fill="#8e05c2" d="M 353.335938 177.019531 C 353.335938 174.195312 351.046875 171.90625 348.222656 171.90625 C 345.394531 171.90625 343.105469 174.195312 343.105469 177.019531 L 343.105469 196.917969 C 343.105469 199.753906 345.394531 202.035156 348.222656 202.035156 C 351.046875 202.035156 353.335938 199.753906 353.335938 196.917969 L 353.335938 177.019531 " fill-opacity="1" fill-rule="nonzero"/><g clip-path="url(#7b06ad1257)"><path fill="#c147e9" d="M 174.03125 96.855469 C 174.03125 91.511719 178.363281 87.183594 183.695312 87.183594 L 191.070312 87.183594 C 196.414062 87.183594 200.738281 91.511719 200.738281 96.855469 L 200.738281 277.089844 C 200.738281 282.429688 196.414062 286.757812 191.070312 286.757812 L 183.695312 286.757812 C 178.363281 286.757812 174.03125 282.429688 174.03125 277.085938 L 174.03125 96.851562 " fill-opacity="1" fill-rule="nonzero"/></g><g clip-path="url(#689433e561)"><path fill="#c147e9" d="M 141.351562 121.300781 C 141.351562 115.964844 145.683594 111.628906 151.015625 111.628906 L 151.585938 111.628906 C 156.917969 111.628906 161.25 115.964844 161.25 121.300781 L 161.25 252.636719 C 161.25 257.976562 156.917969 262.308594 151.585938 262.308594 L 151.015625 262.308594 C 145.683594 262.308594 141.351562 257.976562 141.351562 252.640625 L 141.351562 121.300781 " fill-opacity="1" fill-rule="nonzero"/></g><g clip-path="url(#96e2db97f1)"><path fill="#c147e9" d="M 112.941406 146.597656 C 112.941406 141.578125 117.011719 137.503906 122.03125 137.503906 C 127.054688 137.503906 131.125 141.578125 131.125 146.597656 L 131.125 227.339844 C 131.125 232.367188 127.054688 236.441406 122.03125 236.441406 C 117.011719 236.441406 112.941406 232.367188 112.941406 227.339844 L 112.941406 146.597656 " fill-opacity="1" fill-rule="nonzero"/></g><g clip-path="url(#7b4ee51d4e)"><path fill="#c147e9" d="M 86.226562 124.425781 C 86.226562 120.027344 89.792969 116.46875 94.1875 116.46875 C 98.582031 116.46875 102.140625 120.027344 102.140625 124.425781 L 102.140625 249.519531 C 102.140625 253.910156 98.582031 257.472656 94.1875 257.472656 C 89.792969 257.472656 86.226562 253.910156 86.226562 249.515625 L 86.226562 124.421875 " fill-opacity="1" fill-rule="nonzero"/></g><g clip-path="url(#aa910c584c)"><path fill="#c147e9" d="M 61.214844 159.675781 C 61.214844 155.597656 64.53125 152.289062 68.609375 152.289062 C 72.6875 152.289062 75.992188 155.597656 75.992188 159.675781 L 75.992188 214.269531 C 75.992188 218.347656 72.6875 221.65625 68.609375 221.65625 C 64.53125 221.65625 61.214844 218.347656 61.214844 214.269531 L 61.214844 159.675781 " fill-opacity="1" fill-rule="nonzero"/></g><g clip-path="url(#7a9b2cd05a)"><path fill="#c147e9" d="M 39.054688 168.769531 C 39.054688 165.320312 41.855469 162.519531 45.3125 162.519531 C 48.757812 162.519531 51.558594 165.320312 51.558594 168.769531 L 51.558594 205.167969 C 51.558594 208.617188 48.757812 211.417969 45.3125 211.417969 C 41.855469 211.417969 39.054688 208.617188 39.054688 205.167969 L 39.054688 168.769531 " fill-opacity="1" fill-rule="nonzero"/></g><g clip-path="url(#6ac1be0027)"><path fill="#c147e9" d="M 21.4375 177.019531 C 21.4375 174.191406 23.726562 171.902344 26.558594 171.902344 C 29.375 171.902344 31.667969 174.191406 31.667969 177.019531 L 31.667969 196.917969 C 31.667969 199.75 29.375 202.03125 26.558594 202.03125 C 23.726562 202.03125 21.4375 199.75 21.4375 196.917969 L 21.4375 177.019531 " fill-opacity="1" fill-rule="nonzero"/></g><g clip-path="url(#c4d60deaa9)"><path fill="#c147e9" d="M 233.421875 121.300781 C 233.421875 115.964844 229.089844 111.628906 223.757812 111.628906 L 223.199219 111.628906 C 217.855469 111.628906 213.535156 115.964844 213.535156 121.300781 L 213.535156 252.636719 C 213.535156 257.976562 217.855469 262.308594 223.199219 262.308594 L 223.757812 262.308594 C 229.089844 262.308594 233.421875 257.976562 233.421875 252.640625 L 233.421875 121.300781 " fill-opacity="1" fill-rule="nonzero"/></g><g clip-path="url(#97215264df)"><path fill="#c147e9" d="M 261.839844 146.597656 C 261.839844 141.578125 257.769531 137.503906 252.746094 137.503906 C 247.726562 137.503906 243.648438 141.578125 243.648438 146.597656 L 243.648438 227.339844 C 243.648438 232.367188 247.726562 236.441406 252.746094 236.441406 C 257.769531 236.441406 261.839844 232.367188 261.839844 227.339844 L 261.839844 146.597656 " fill-opacity="1" fill-rule="nonzero"/></g><g clip-path="url(#cd826a05be)"><path fill="#c147e9" d="M 288.546875 124.425781 C 288.546875 120.027344 284.984375 116.46875 280.589844 116.46875 C 276.191406 116.46875 272.632812 120.027344 272.632812 124.425781 L 272.632812 249.519531 C 272.632812 253.910156 276.191406 257.472656 280.589844 257.472656 C 284.984375 257.472656 288.546875 253.910156 288.546875 249.515625 L 288.546875 124.421875 " fill-opacity="1" fill-rule="nonzero"/></g><g clip-path="url(#fe4adf8270)"><path fill="#c147e9" d="M 313.554688 159.675781 C 313.554688 155.597656 310.246094 152.289062 306.167969 152.289062 C 302.085938 152.289062 298.78125 155.597656 298.78125 159.675781 L 298.78125 214.269531 C 298.78125 218.347656 302.085938 221.65625 306.167969 221.65625 C 310.246094 221.65625 313.554688 218.347656 313.554688 214.269531 L 313.554688 159.675781 " fill-opacity="1" fill-rule="nonzero"/></g><g clip-path="url(#b66b624e21)"><path fill="#c147e9" d="M 335.71875 168.769531 C 335.71875 165.320312 332.917969 162.519531 329.464844 162.519531 C 326.015625 162.519531 323.214844 165.320312 323.214844 168.769531 L 323.214844 205.167969 C 323.214844 208.617188 326.015625 211.417969 329.464844 211.417969 C 332.917969 211.417969 335.71875 208.617188 335.71875 205.167969 L 335.71875 168.769531 " fill-opacity="1" fill-rule="nonzero"/></g><g clip-path="url(#fe112da31d)"><path fill="#c147e9" d="M 353.335938 177.019531 C 353.335938 174.191406 351.046875 171.902344 348.222656 171.902344 C 345.394531 171.902344 343.105469 174.191406 343.105469 177.019531 L 343.105469 196.917969 C 343.105469 199.75 345.394531 202.03125 348.222656 202.03125 C 351.046875 202.03125 353.335938 199.75 353.335938 196.917969 L 353.335938 177.019531 " fill-opacity="1" fill-rule="nonzero"/></g></svg>